<mxfile host="app.diagrams.net" modified="2024-04-26T13:11:08.213Z" agent="Mozilla/5.0 (Macintosh; Intel Mac OS X 10_15_7) AppleWebKit/537.36 (KHTML, like Gecko) Chrome/124.0.0.0 Safari/537.36" version="24.3.0" etag="8YJ-_kxprGytXOALPV-q" type="github">
  <diagram name="Page-1" id="q1qUNlV90TycMYUnYFNo">
    <mxGraphModel>
      <root>
        <mxCell id="0" />
        <mxCell id="1" parent="0" />
      </root>
    </mxGraphModel>
  </diagram>
</mxfile>
